<svg width="24" height="24" viewBox="0 0 24 24" fill="none" xmlns="http://www.w3.org/2000/svg">
<g clip-path="url(#clip0_1864_9103)">
<path d="M23.6484 21.4655H0.351562V22.7261H23.6484V21.4655Z" fill="#57565C"/>
<path d="M21.0496 15.2219H14.1229L12 21.4652H23.1725L21.0496 15.2219Z" fill="#FED322"/>
<path d="M9.87712 15.2219H2.95036L0.827484 21.4652H12L9.87712 15.2219Z" fill="#FED322"/>
<path d="M15.4634 8.97852H8.53663L6.41376 15.2218H17.5862L15.4634 8.97852Z" fill="#FED322"/>
<path d="M11.9879 8.97852H8.53663L6.41376 15.2218H11.9879V8.97852Z" fill="#EEBF00"/>
<path d="M6.40172 15.2219H2.95036L0.827484 21.4652H6.40172V15.2219Z" fill="#EEBF00"/>
<path d="M17.5622 15.2219H14.1108L11.9879 21.4652H17.5622V15.2219Z" fill="#EEBF00"/>
<path d="M14.8464 11.4453L14.4392 10.3827H12.3938V9.67957H14.9228L15.503 11.1937L14.8464 11.4453Z" fill="white"/>
<path d="M9.24352 17.6972L8.83641 16.6345H6.79102V15.9314H9.31997L9.90014 17.4456L9.24352 17.6972Z" fill="white"/>
<path d="M20.372 17.6972L19.9649 16.6345H17.9195V15.9314H20.4484L21.0286 17.4456L20.372 17.6972Z" fill="white"/>
<path d="M23.4243 21.1136L21.3014 14.8703H17.838L15.7152 8.62695H8.28483L6.16195 14.8703H2.69859L0.575719 21.1136H0V23.0774H24V21.1136H23.4243ZM20.7979 15.5734L22.6817 21.1136H12.4909L14.3747 15.5734H18.0772H20.7979ZM12 20.3732L10.368 15.5735H13.632L12 20.3732ZM8.78836 9.33008H15.2116L17.0954 14.8703H13.8711H10.1289H6.90459L8.78836 9.33008ZM3.20217 15.5734H5.92289H9.62536L11.5092 21.1136H1.31836L3.20217 15.5734ZM23.2969 22.3743H0.703125V21.8167H11.5091H12.4908H23.2969V22.3743Z" fill="black"/>
<path d="M12.3516 0.922607H11.6484V4.52509H12.3516V0.922607Z" fill="black"/>
<path d="M22.8911 11.4623H19.2886V12.1655H22.8911V11.4623Z" fill="black"/>
<path d="M4.7114 11.4623H1.10892V12.1655H4.7114V11.4623Z" fill="black"/>
<path d="M16.9047 6.41182L17.4019 6.909L19.9491 4.36175L19.4519 3.86457L16.9047 6.41182Z" fill="black"/>
<path d="M4.05001 4.36095L6.59726 6.9082L7.09444 6.41102L4.54719 3.86377L4.05001 4.36095Z" fill="black"/>
</g>
<defs>
<clipPath id="clip0_1864_9103">
<rect width="24" height="24" fill="white"/>
</clipPath>
</defs>
</svg>
