<svg width="48" height="48" viewBox="0 0 48 48" fill="none" xmlns="http://www.w3.org/2000/svg">
<g opacity="0.2" clip-path="url(#clip0_1864_9670)">
<path d="M24.0002 37.6809C31.5558 37.6809 37.6808 31.5559 37.6808 24.0002C37.6808 16.4446 31.5558 10.3196 24.0002 10.3196C16.4446 10.3196 10.3195 16.4446 10.3195 24.0002C10.3195 31.5559 16.4446 37.6809 24.0002 37.6809Z" fill="#C6C5CB"/>
<path d="M24.0002 35.0487C30.1021 35.0487 35.0487 30.1021 35.0487 24.0002C35.0487 17.8983 30.1021 12.9517 24.0002 12.9517C17.8983 12.9517 12.9517 17.8983 12.9517 24.0002C12.9517 30.1021 17.8983 35.0487 24.0002 35.0487Z" fill="white"/>
<path d="M35.0484 24.0001C35.0484 30.1019 30.1018 35.0485 24 35.0485V12.9517C30.1019 12.9517 35.0484 17.8982 35.0484 24.0001Z" fill="#E0E0E2"/>
<path d="M29.8128 19.2024C28.3649 17.7545 26.2047 17.7545 24.7569 19.2024L23.9999 19.9593L23.243 19.2024C21.7951 17.7545 19.6349 17.7545 18.1871 19.2024C16.7392 20.6502 16.8328 22.9977 18.2808 24.4457L23.9998 30.4459L29.7189 24.4457C31.167 22.9977 31.2607 20.6502 29.8128 19.2024Z" fill="#FF5023"/>
<path d="M24 19.9593L23.2431 19.2024C21.7952 17.7545 19.635 17.7545 18.1871 19.2024C16.7392 20.6502 16.8329 22.9977 18.2809 24.4457L23.9999 30.4459V19.9593H24Z" fill="#CD2A01"/>
<path d="M17.6811 39.3346L15.1286 45.5291C21.0737 47.9788 27.4489 47.7869 32.9503 45.4963L30.375 39.3113C26.4566 40.9428 21.9156 41.0795 17.6811 39.3346Z" fill="white"/>
<path d="M39.3346 30.3188C37.5896 34.5533 34.2935 37.6798 30.3751 39.3113L32.9503 45.4963C38.4517 43.2057 43.0792 38.8164 45.529 32.8713L39.3346 30.3188Z" fill="#FF5023"/>
<path d="M8.68872 30.375L2.50366 32.9502C4.79426 38.4517 9.18354 43.0792 15.1287 45.5289L17.6812 39.3345C13.4466 37.5895 10.3203 34.2935 8.68872 30.375Z" fill="#FF5023"/>
<path d="M39.3346 30.319L45.529 32.8715C47.9788 26.9264 47.7869 20.5512 45.4963 15.0498L39.3112 17.6251C40.9428 21.5436 41.0794 26.0845 39.3346 30.319Z" fill="white"/>
<path d="M30.3188 8.66555L32.8714 2.47111C26.9263 0.0212355 20.551 0.213142 15.0497 2.50364L17.6249 8.6887C21.5435 7.05717 26.0843 6.92058 30.3188 8.66555Z" fill="white"/>
<path d="M8.66549 17.6811L2.47096 15.1287C0.0211763 21.0737 0.213082 27.4489 2.50368 32.9503L8.68874 30.3751C7.05711 26.4567 6.92052 21.9157 8.66549 17.6811Z" fill="white"/>
<path d="M39.3113 17.6249L45.4963 15.0497C43.2057 9.54823 38.8165 4.92073 32.8714 2.47095L30.3188 8.66538C34.5534 10.4103 37.6798 13.7064 39.3113 17.6249Z" fill="#FF5023"/>
<path d="M17.6249 8.68872L15.0497 2.50366C9.54823 4.79426 4.92073 9.18363 2.47095 15.1287L8.66538 17.6812C10.4103 13.4467 13.7064 10.3203 17.6249 8.68872Z" fill="#FF5023"/>
<path d="M37.6806 24.0001H40.5854C40.5854 21.7582 40.1396 19.6207 39.3335 17.6702L36.6479 18.7788C37.313 20.3878 37.6806 22.1509 37.6806 24.0001Z" fill="#FF5023"/>
<path d="M14.3264 33.6736L12.2724 35.7276C13.7955 37.2506 15.6137 38.478 17.6335 39.3185L18.7486 36.6355C17.0824 35.9423 15.5826 34.9298 14.3264 33.6736Z" fill="#FF5023"/>
<path d="M11.352 29.2212L8.66644 30.3298C9.50729 32.3642 10.74 34.1953 12.2723 35.7275L14.3262 33.6736C13.0625 32.4097 12.0456 30.8993 11.352 29.2212Z" fill="white"/>
<path d="M18.7485 36.6355L17.6334 39.3184C19.5939 40.1342 21.7441 40.5853 24 40.5853V37.6805C22.1392 37.6805 20.3656 37.3084 18.7485 36.6355Z" fill="white"/>
<path d="M24 37.6807V40.5854C26.2418 40.5854 28.3793 40.1397 30.3299 39.3335L29.2213 36.6479C27.6124 37.313 25.8492 37.6807 24 37.6807Z" fill="#FF5023"/>
<path d="M36.6357 29.2515C35.9425 30.9175 34.93 32.4173 33.6738 33.6736L35.7277 35.7275C37.2508 34.2045 38.4782 32.3862 39.3186 30.3664L36.6357 29.2515Z" fill="#FF5023"/>
<path d="M10.3193 24H7.41449C7.41449 26.2418 7.86027 28.3793 8.66643 30.3299L11.352 29.2213C10.687 27.6123 10.3193 25.8492 10.3193 24Z" fill="#FF5023"/>
<path d="M29.2213 36.6478L30.3299 39.3334C32.3643 38.4925 34.1954 37.2598 35.7277 35.7276L33.6737 33.6736C32.4098 34.9374 30.8994 35.9543 29.2213 36.6478Z" fill="white"/>
<path d="M18.7787 11.3521L17.6701 8.6665C15.6357 9.50735 13.8046 10.7401 12.2723 12.2723L14.3263 14.3263C15.5902 13.0625 17.1007 12.0455 18.7787 11.3521Z" fill="white"/>
<path d="M11.3644 18.7484L8.68152 17.6333C7.8658 19.5938 7.41467 21.744 7.41467 23.9999H10.3195C10.3193 22.1391 10.6915 20.3655 11.3644 18.7484Z" fill="white"/>
<path d="M29.2515 11.3643L30.3666 8.68139C28.4061 7.86568 26.2559 7.41455 24 7.41455V10.3194C25.8607 10.3193 27.6345 10.6915 29.2515 11.3643Z" fill="white"/>
<path d="M36.6479 18.7786L39.3334 17.67C38.4926 15.6356 37.2599 13.8045 35.7276 12.2722L33.6736 14.3262C34.9376 15.5901 35.9544 17.1005 36.6479 18.7786Z" fill="white"/>
<path d="M33.6737 14.3263L35.7276 12.2723C34.2046 10.7492 32.3863 9.52187 30.3665 8.6814L29.2515 11.3643C30.9175 12.0574 32.4174 13.0699 33.6737 14.3263Z" fill="#FF5023"/>
<path d="M14.3264 14.3264L12.2724 12.2725C10.7494 13.7955 9.52199 15.6138 8.68152 17.6336L11.3645 18.7486C12.0576 17.0826 13.07 15.5828 14.3264 14.3264Z" fill="#FF5023"/>
<path d="M24 10.3194V7.41455C21.7582 7.41455 19.6207 7.86033 17.6701 8.66649L18.7787 11.3521C20.3877 10.6871 22.1508 10.3194 24 10.3194Z" fill="#FF5023"/>
<path d="M36.6357 29.2515L39.3187 30.3666C40.1344 28.4061 40.5855 26.2559 40.5855 24H37.6808C37.6807 25.8607 37.3086 27.6344 36.6357 29.2515Z" fill="white"/>
<path d="M30.3097 18.7054C29.4767 17.8723 28.4025 17.4136 27.2848 17.4136C26.1671 17.4136 25.0929 17.8724 24.2599 18.7054L24 18.9653L23.74 18.7054C22.9069 17.8723 21.8328 17.4136 20.7152 17.4136C19.5976 17.4136 18.5233 17.8724 17.6902 18.7054C15.9986 20.3971 16.0386 23.1905 17.7778 24.9364L24.0001 31.4644L30.2224 24.9364C31.0528 24.1027 31.5259 23.004 31.5545 21.8414C31.5838 20.6511 31.1418 19.5375 30.3097 18.7054ZM30.1493 21.8065C30.1295 22.6099 29.8002 23.3705 29.2221 23.9486L24 29.4272L18.7896 23.9607L18.7779 23.9487C17.5805 22.7512 17.5385 20.845 18.6843 19.6993C19.2518 19.1317 19.973 18.8193 20.7153 18.8193C21.4574 18.8193 22.1787 19.1317 22.7463 19.6993L24.0001 20.9531L25.2539 19.6993C25.8214 19.1317 26.5427 18.8193 27.2849 18.8193C28.0271 18.8193 28.7484 19.1317 29.3159 19.6993C29.8731 20.2565 30.1691 21.0049 30.1493 21.8065Z" fill="black"/>
<path d="M46.405 15.4325L46.4153 15.4283L46.1451 14.7795L45.8749 14.1306L45.8647 14.1348C43.437 8.74364 39.1849 4.50708 33.7847 2.09911L33.7889 2.08889L33.139 1.82114L32.4892 1.55339L32.4849 1.56361C29.759 0.530297 26.9112 0.00585938 24.0089 0.00585938C21.0652 0.00585938 18.1837 0.540797 15.4327 1.59502L15.4283 1.5848L14.7795 1.85498L14.1307 2.12517L14.1349 2.13539C8.74369 4.56286 4.50713 8.81508 2.09916 14.2153L2.08894 14.211L1.82119 14.8609L1.55344 15.5108L1.56366 15.515C-0.531935 21.0439 -0.520967 27.0464 1.59488 32.5675L1.58466 32.5717L1.85485 33.2205L2.12503 33.8694L2.13525 33.8652C4.563 39.2563 8.81513 43.4929 14.2153 45.9009L14.2111 45.9111L14.861 46.1789L15.5108 46.4466L15.5151 46.4364C18.2411 47.4696 21.0889 47.9942 23.9913 47.9942C26.935 47.9942 29.8165 47.4593 32.5675 46.4051L32.5718 46.4153L33.2207 46.1451L33.8695 45.8749L33.8653 45.8647C39.2566 43.437 43.4933 39.1848 45.9012 33.7845L45.9114 33.7888L46.1792 33.1389L46.4469 32.489L46.4367 32.4848C48.5319 26.9562 48.5209 20.9536 46.405 15.4325ZM45.1372 31.9497L40.7324 30.1347L40.2415 29.9324C40.4589 29.3382 40.6428 28.7347 40.7927 28.1234C40.8073 28.0642 40.821 28.005 40.835 27.9456C40.8477 27.891 40.8611 27.8365 40.8734 27.7817C41.1037 26.7647 41.2403 25.735 41.2829 24.7027H41.2882V24.5322C41.2994 24.1759 41.2995 23.8195 41.2882 23.4633V23.2972H41.2824C41.2347 22.1387 41.0695 20.9834 40.7856 19.8461C40.6361 19.2415 40.4528 18.6449 40.2373 18.0572L40.2516 18.0513L40.2316 18.003L45.1079 15.9727C47.0802 21.1468 47.0905 26.7682 45.1372 31.9497ZM32.281 37.556C32.1384 37.6433 31.994 37.7276 31.8485 37.8103C31.7771 37.8507 31.7051 37.89 31.633 37.9291C31.5697 37.9638 31.5061 37.9979 31.4423 38.0316C31.2001 38.1595 30.954 38.2815 30.704 38.3974L30.6356 38.2319L30.1326 37.0132C31.4219 36.4058 32.6046 35.6157 33.6618 34.6554L34.1863 35.18L34.7229 35.7167C33.9834 36.3946 33.1876 36.996 32.3414 37.5185C32.3213 37.5312 32.3013 37.5437 32.281 37.556ZM27.0984 39.581C26.9961 39.6015 26.8933 39.6204 26.7906 39.6388C26.6957 39.6555 26.6007 39.6716 26.5056 39.6867C26.5042 39.6869 26.5027 39.6871 26.5013 39.6874C25.9082 39.7813 25.3083 39.8414 24.703 39.8676V38.3668C24.7099 38.3664 24.7167 38.3657 24.7237 38.3654C24.872 38.358 25.0196 38.3478 25.1668 38.336C25.2248 38.3313 25.2825 38.3259 25.3403 38.3205C25.436 38.3116 25.5314 38.3018 25.6265 38.291C25.6905 38.2838 25.7544 38.2771 25.8183 38.269C25.9469 38.2527 26.075 38.2347 26.2026 38.215C26.2845 38.2024 26.366 38.1883 26.4476 38.1743C26.5086 38.1638 26.5692 38.153 26.6299 38.1418C26.7185 38.1254 26.8071 38.1089 26.8953 38.0908C26.8968 38.0905 26.8982 38.0901 26.8997 38.0898C27.1096 38.0468 27.3183 37.9981 27.5261 37.9457C27.5642 37.9361 27.6022 37.9265 27.64 37.9166C27.9522 37.8349 28.2619 37.7425 28.5687 37.6395C28.5913 37.6319 28.614 37.6244 28.6365 37.6167C28.7022 37.5943 28.7684 37.5735 28.8339 37.5502L29.4054 38.9348C28.6613 39.205 27.9033 39.4182 27.1344 39.5737C27.1222 39.576 27.1103 39.5786 27.0984 39.581ZM21.1812 39.6338C21.0834 39.6163 20.9858 39.5978 20.8883 39.5785C20.7728 39.5552 20.6573 39.531 20.5423 39.5052C20.5413 39.505 20.5403 39.5047 20.5393 39.5045C19.8706 39.3542 19.2102 39.159 18.5598 38.921L19.1344 37.5386C19.212 37.5665 19.2903 37.5914 19.3683 37.6179C19.384 37.6232 19.3998 37.6286 19.4155 37.6339C19.7287 37.7394 20.0448 37.8338 20.3635 37.9171C20.3945 37.9252 20.4255 37.9333 20.4565 37.9411C20.7592 38.018 21.0641 38.0849 21.3713 38.1418C21.4268 38.1521 21.4824 38.1621 21.5382 38.1718C21.6239 38.1866 21.7094 38.2013 21.7954 38.2145C21.9211 38.2339 22.0474 38.2519 22.1741 38.268C22.2401 38.2764 22.3063 38.2833 22.3725 38.2908C22.4659 38.3014 22.5595 38.3112 22.6534 38.3199C22.7133 38.3254 22.7731 38.3311 22.8331 38.3359C22.9799 38.3477 23.1272 38.3579 23.2753 38.3653C23.2827 38.3656 23.29 38.3664 23.2974 38.3668V39.8676C22.5851 39.8368 21.8805 39.759 21.1856 39.6347C21.184 39.6344 21.1826 39.6341 21.1812 39.6338ZM16.3661 37.9286C16.2802 37.8817 16.1945 37.8344 16.1095 37.7861C15.9759 37.7096 15.8431 37.6319 15.7119 37.5515C15.689 37.5375 15.666 37.5234 15.6431 37.5093C14.8026 36.9889 14.012 36.3906 13.277 35.7169L14.3382 34.6557C15.3869 35.6084 16.5592 36.3936 17.8364 36.999L17.2614 38.3823C17.0265 38.2726 16.7951 38.1574 16.5672 38.0373C16.4999 38.0016 16.4329 37.9652 16.3661 37.9286ZM8.59031 27.8604C8.56575 27.7633 8.54288 27.6659 8.52019 27.5685C8.50791 27.515 8.49544 27.4618 8.48372 27.4081C8.47913 27.3874 8.47491 27.3666 8.47041 27.3459C8.28441 26.4797 8.17135 25.5972 8.13253 24.7028H9.63338C9.63375 24.7096 9.63441 24.7165 9.63478 24.7234C9.64219 24.8717 9.65231 25.0194 9.66413 25.1667C9.66872 25.2246 9.67425 25.2823 9.6796 25.34C9.6885 25.4357 9.69844 25.5313 9.70913 25.6264C9.71635 25.6904 9.72309 25.7542 9.73106 25.818C9.74738 25.9466 9.76547 26.0748 9.78516 26.2024C9.79772 26.2843 9.81188 26.3656 9.82585 26.4472C9.83635 26.5081 9.84713 26.569 9.85847 26.6296C9.87488 26.7183 9.89138 26.8068 9.90947 26.8951C9.90966 26.8961 9.90994 26.897 9.91013 26.898C9.95335 27.1087 10.0021 27.3181 10.0547 27.5266C10.0643 27.5642 10.0737 27.6019 10.0836 27.6393C10.1654 27.9525 10.2581 28.263 10.3614 28.5706C10.3687 28.592 10.3758 28.6135 10.3831 28.6349C10.4057 28.7011 10.4265 28.7678 10.4501 28.8338L9.06563 29.4054C8.88131 28.8979 8.72325 28.3846 8.59228 27.8671C8.59135 27.8646 8.59078 27.8625 8.59031 27.8604ZM15.7188 10.444C15.8615 10.3567 16.006 10.2723 16.1517 10.1895C16.223 10.1492 16.2949 10.11 16.3669 10.0708C16.4303 10.036 16.494 10.002 16.5579 9.9682C16.8001 9.84033 17.0462 9.71845 17.2961 9.60239L17.8675 10.9866C16.5782 11.594 15.3954 12.3841 14.3383 13.3444L13.2771 12.2832C14.0167 11.6053 14.8126 11.0038 15.6589 10.4812C15.6788 10.4687 15.6987 10.4562 15.7188 10.444ZM20.9018 8.41889C21.004 8.39845 21.1067 8.37961 21.2093 8.36123C21.3043 8.34436 21.3996 8.32833 21.4949 8.31323C21.4961 8.31305 21.4973 8.31286 21.4986 8.31267C22.0917 8.21892 22.6917 8.15873 23.297 8.13248V9.63333C23.2901 9.6337 23.2833 9.63436 23.2763 9.63473C23.128 9.64214 22.9804 9.65227 22.8331 9.66408C22.7752 9.66877 22.7175 9.6742 22.6597 9.67955C22.5641 9.68845 22.4688 9.6983 22.3737 9.70908C22.3096 9.7163 22.2456 9.72305 22.1816 9.73111C22.053 9.74742 21.9249 9.76542 21.7974 9.78511C21.7156 9.79767 21.6342 9.81183 21.5527 9.8258C21.4917 9.8363 21.431 9.84708 21.3702 9.85833C21.2815 9.87473 21.193 9.89123 21.1047 9.90933C21.1038 9.90952 21.1028 9.9098 21.1018 9.90998C20.8911 9.9532 20.6816 10.002 20.473 10.0546C20.4355 10.0641 20.398 10.0737 20.3608 10.0834C20.0477 10.1654 19.7371 10.258 19.4293 10.3614C19.4079 10.3686 19.3865 10.3757 19.3651 10.383C19.2988 10.4055 19.2322 10.4264 19.1662 10.45L18.5946 9.06548C19.3385 8.79539 20.0962 8.5823 20.8647 8.42677C20.8775 8.42405 20.8897 8.42133 20.9018 8.41889ZM26.8163 8.36555C26.9151 8.38327 27.0136 8.40183 27.1119 8.42142C27.2273 8.44458 27.3425 8.46877 27.4573 8.49455C27.4587 8.49483 27.4601 8.4952 27.4615 8.49548C28.13 8.64567 28.7901 8.84095 29.4402 9.0788L29.2475 9.54277L28.8657 10.4612C28.7881 10.4333 28.7098 10.4085 28.6318 10.3819C28.6161 10.3766 28.6003 10.3712 28.5846 10.3659C28.2714 10.2604 27.9553 10.166 27.6366 10.0828C27.6056 10.0747 27.5746 10.0666 27.5436 10.0588C27.2409 9.98189 26.936 9.91505 26.6288 9.85814C26.5732 9.84783 26.5177 9.8378 26.4619 9.82814C26.3762 9.81333 26.2907 9.79861 26.2047 9.78539C26.079 9.76598 25.9527 9.74798 25.826 9.73186C25.76 9.72352 25.6938 9.71658 25.6276 9.70908C25.5341 9.69848 25.4406 9.68873 25.3467 9.68002C25.2868 9.67448 25.227 9.66877 25.167 9.66398C25.0202 9.65217 24.8729 9.64205 24.7248 9.63464C24.7174 9.63426 24.7101 9.63352 24.7027 9.63314V8.13239C25.4151 8.16323 26.1198 8.24095 26.8148 8.36536C26.8154 8.36545 26.8159 8.36555 26.8163 8.36555ZM31.6292 10.0686C31.7179 10.117 31.8062 10.1657 31.8938 10.2156C32.0258 10.2913 32.1572 10.3681 32.2868 10.4475C32.3105 10.4619 32.3342 10.4764 32.3579 10.491C33.1981 11.0113 33.9884 11.6094 34.723 12.2828L33.8689 13.137L33.6619 13.344C32.6131 12.3914 31.4408 11.6062 30.1637 11.0007L30.7387 9.6173C30.9741 9.72727 31.2059 9.84267 31.4344 9.96305C31.4995 9.99792 31.5645 10.0332 31.6292 10.0686ZM39.409 20.1363C39.434 20.235 39.4572 20.3339 39.4802 20.4328C39.4923 20.4855 39.5047 20.538 39.5162 20.5909C39.521 20.6125 39.5254 20.634 39.5301 20.6556C39.7159 21.5213 39.8288 22.4033 39.8676 23.2972H38.3667C38.3663 23.2904 38.3657 23.2835 38.3653 23.2766C38.3579 23.1283 38.3478 22.9806 38.336 22.8333C38.3314 22.7754 38.3258 22.7177 38.3205 22.6599C38.3116 22.5643 38.3018 22.469 38.291 22.374C38.2838 22.3098 38.277 22.2458 38.2689 22.1819C38.2526 22.0532 38.2346 21.9252 38.2149 21.7977C38.2024 21.7158 38.1882 21.6344 38.1743 21.5529C38.1637 21.492 38.153 21.4312 38.1417 21.3705C38.1253 21.2819 38.1087 21.1933 38.0907 21.105C38.0906 21.1044 38.0904 21.1038 38.0903 21.1033C38.047 20.892 37.9981 20.682 37.9454 20.473C37.9359 20.4357 37.9266 20.3985 37.9168 20.3614C37.8348 20.0478 37.742 19.7367 37.6384 19.4285C37.6314 19.4077 37.6245 19.387 37.6174 19.3662C37.5947 19.2996 37.5738 19.2327 37.5501 19.1664L38.9346 18.5948C39.1191 19.1027 39.2772 19.6165 39.4083 20.1344C39.4087 20.1351 39.4088 20.1357 39.409 20.1363ZM37.9285 31.6342C37.8817 31.7201 37.8346 31.8055 37.7862 31.8903C37.7096 32.0239 37.6319 32.1569 37.5515 32.2881C37.5375 32.3111 37.5234 32.334 37.5094 32.3568C36.989 33.1974 36.3907 33.988 35.7169 34.723L34.6556 33.6617C35.6082 32.613 36.3935 31.4408 36.999 30.1635L38.3824 30.7385C38.2727 30.9734 38.1576 31.2047 38.0375 31.4326C38.0016 31.5001 37.9652 31.5673 37.9285 31.6342ZM24.9956 36.9401C24.8984 36.9475 24.8006 36.9535 24.7028 36.9587C24.6892 36.9595 24.6756 36.9605 24.662 36.9612C24.5713 36.9658 24.4804 36.9689 24.3893 36.9716C24.3695 36.9721 24.3498 36.9733 24.33 36.9737C24.2204 36.9765 24.1103 36.978 24 36.978C23.8894 36.978 23.7789 36.9765 23.6689 36.9737C23.6523 36.9734 23.6358 36.9724 23.6193 36.972C23.5246 36.9692 23.4299 36.966 23.3357 36.9612C23.3278 36.9608 23.32 36.9601 23.3122 36.9598C16.8086 36.6185 11.5581 31.467 11.0607 25.0053C11.0604 25.002 11.0602 24.9989 11.0599 24.9956C11.0525 24.8985 11.0465 24.8009 11.0413 24.7032C11.0406 24.6894 11.0395 24.6758 11.0388 24.662C11.0342 24.5715 11.0311 24.4805 11.0284 24.3895C11.0278 24.3696 11.0267 24.3499 11.0262 24.33C11.0235 24.2205 11.022 24.1104 11.022 24.0001C11.022 23.8895 11.0234 23.7791 11.0262 23.669C11.0266 23.6525 11.0275 23.6361 11.028 23.6197C11.0307 23.5249 11.034 23.4301 11.0388 23.3358C11.0392 23.3281 11.0398 23.3205 11.0402 23.3128C11.3813 16.809 16.5328 11.5583 22.9946 11.061C22.9978 11.0607 23.0011 11.0604 23.0043 11.0601C23.1014 11.0527 23.199 11.0467 23.2967 11.0415C23.3105 11.0408 23.3242 11.0398 23.3378 11.039C23.4284 11.0344 23.5193 11.0313 23.6104 11.0286C23.6303 11.028 23.6499 11.0269 23.6698 11.0265C23.7794 11.0237 23.8895 11.0222 23.9997 11.0222C24.1103 11.0222 24.2208 11.0236 24.3308 11.0265C24.3474 11.0268 24.3639 11.0278 24.3804 11.0282C24.4751 11.031 24.5698 11.0342 24.664 11.039C24.6719 11.0394 24.6797 11.04 24.6876 11.0404C31.1911 11.3817 36.4417 16.5331 36.939 22.9949C36.9393 22.998 36.9396 23.0013 36.9398 23.0045C36.9473 23.1016 36.9533 23.1992 36.9584 23.2969C36.9592 23.3107 36.9602 23.3243 36.9609 23.3381C36.9655 23.4286 36.9686 23.5196 36.9713 23.6106C36.9719 23.6305 36.973 23.6502 36.9735 23.67C36.9762 23.7796 36.9777 23.8897 36.9777 24C36.9777 24.1106 36.9763 24.221 36.9735 24.331C36.9731 24.3476 36.9722 24.3641 36.9717 24.3807C36.969 24.4754 36.9657 24.57 36.9609 24.6644C36.9606 24.6722 36.9599 24.68 36.9595 24.6879C36.6183 31.1916 31.4666 36.4422 25.0047 36.9394C25.0018 36.9395 24.9987 36.9398 24.9956 36.9401ZM12.283 34.723C11.605 33.9834 11.0035 33.1873 10.4809 32.3409C10.4687 32.321 10.4562 32.3013 10.444 32.2814C10.3567 32.1385 10.2722 31.9938 10.1893 31.848C10.1492 31.7771 10.1101 31.7055 10.0711 31.6338C10.036 31.5699 10.0017 31.5056 9.9676 31.4411C9.83991 31.1992 9.71813 30.9534 9.60225 30.7037L10.9865 30.1323C11.5939 31.4217 12.3841 32.6044 13.3444 33.6615L12.283 34.723ZM8.5005 20.517C8.65013 19.8574 8.84335 19.2039 9.07894 18.5596L10.4613 19.1341C10.4333 19.2117 10.4085 19.29 10.382 19.3679C10.3765 19.3837 10.3712 19.3996 10.3658 19.4155C10.2605 19.7283 10.1662 20.0442 10.083 20.3626C10.0748 20.3941 10.0667 20.4256 10.0586 20.457C9.98194 20.759 9.91519 21.0634 9.85847 21.3699C9.84806 21.4261 9.83794 21.4824 9.8281 21.5388C9.81338 21.624 9.79875 21.7091 9.78563 21.7946C9.76613 21.9206 9.74813 22.0471 9.732 22.1742C9.72366 22.2399 9.71681 22.3057 9.70931 22.3716C9.69872 22.4653 9.68888 22.5591 9.68016 22.6533C9.67463 22.7131 9.669 22.7728 9.66413 22.8328C9.65231 22.9796 9.64219 23.127 9.63478 23.2751C9.63441 23.2825 9.63366 23.2898 9.63328 23.2972H8.13253C8.17322 22.3553 8.2966 21.4269 8.5005 20.517ZM10.0712 16.3662C10.1183 16.28 10.1655 16.1941 10.2141 16.109C10.2905 15.9757 10.368 15.8431 10.4482 15.7123C10.4623 15.689 10.4766 15.6658 10.4908 15.6426C11.0111 14.8021 11.6094 14.0116 12.283 13.2768L13.3443 14.3381C12.3916 15.3868 11.6063 16.5591 11.001 17.8363L9.9181 17.3862L9.61772 17.2614C9.72741 17.0265 9.84253 16.7951 9.96272 16.5672C9.99835 16.4999 10.0346 16.4329 10.0712 16.3662ZM37.556 15.7185C37.6433 15.8614 37.7278 16.0061 37.8107 16.1519C37.8508 16.2228 37.8899 16.2944 37.9289 16.3661C37.964 16.43 37.9983 16.4943 38.0324 16.5588C38.1601 16.8007 38.2819 17.0465 38.3978 17.2962L37.0135 17.8676C36.4061 16.5782 35.6159 15.3956 34.6557 14.3384L35.717 13.2771C36.395 14.0167 36.9965 14.8128 37.5191 15.6592C37.5313 15.6789 37.5438 15.6986 37.556 15.7185ZM39.4995 27.483C39.3499 28.1425 39.1567 28.796 38.9211 29.4403L37.5387 28.8658C37.5667 28.7881 37.5915 28.7099 37.618 28.6319C37.6234 28.6161 37.6287 28.6004 37.6341 28.5846C37.7395 28.2715 37.8339 27.9554 37.9172 27.6366C37.9253 27.6056 37.9333 27.5746 37.9412 27.5435C38.0181 27.2409 38.085 26.9359 38.1418 26.6288C38.1521 26.5732 38.1622 26.5176 38.1718 26.4618C38.1866 26.3761 38.2013 26.2906 38.2146 26.2047C38.234 26.079 38.252 25.9527 38.2681 25.8259C38.2764 25.7599 38.2834 25.6937 38.2909 25.6275C38.3015 25.5342 38.3112 25.4406 38.3199 25.3467C38.3255 25.2868 38.3312 25.227 38.336 25.167C38.3478 25.0201 38.3579 24.8728 38.3653 24.7247C38.3657 24.7173 38.3664 24.71 38.3668 24.7026H39.8677C39.8269 25.6445 39.7034 26.5729 39.4995 27.483ZM44.5676 14.675L39.6788 16.7105C39.5166 16.3614 39.3429 16.019 39.1587 15.683C39.1574 15.6806 39.1561 15.6782 39.1548 15.6758C39.1012 15.5783 39.0471 15.4812 38.9916 15.3849C38.9648 15.3381 38.9375 15.2918 38.9103 15.2453C38.8779 15.1903 38.8459 15.1351 38.813 15.0804C38.2078 14.0707 37.5061 13.1322 36.7178 12.276L36.7216 12.2721L36.6005 12.151C36.3568 11.8916 36.1053 11.64 35.8459 11.3964L35.7278 11.2784L35.7237 11.2825C34.8639 10.4907 33.9218 9.78577 32.9076 9.17911C32.8421 9.13973 32.7758 9.10186 32.7098 9.06342C32.6714 9.04111 32.6334 9.01823 32.5949 8.9962C32.1675 8.75133 31.7288 8.52492 31.2794 8.31642L31.2853 8.30227L31.237 8.2822L33.2496 3.39811C38.3027 5.66236 42.2849 9.63005 44.5676 14.675ZM15.9728 2.89205C18.5515 1.90917 21.2515 1.41136 24.0089 1.41136C26.7268 1.41136 29.3946 1.89923 31.9498 2.8627L29.9325 7.75842C29.2208 7.49798 28.4959 7.28545 27.7598 7.12186C26.7558 6.89677 25.7348 6.76345 24.7028 6.72183V6.7117H24.3935C24.2647 6.7088 24.1356 6.7073 24.0065 6.7073C23.8763 6.7073 23.7463 6.7088 23.6166 6.7117H23.2973V6.7223C22.4227 6.75792 21.5567 6.85964 20.7028 7.02623C20.6718 7.03223 20.6407 7.03786 20.6097 7.04405C20.5524 7.05558 20.4955 7.06805 20.4383 7.08014C19.6308 7.24955 18.8363 7.47717 18.0575 7.76264L18.0516 7.74839L18.0032 7.76836L17.1606 5.74486L15.9728 2.89205ZM14.6752 3.43233L16.7107 8.32111C16.3613 8.48348 16.0186 8.6573 15.6822 8.8418C15.6806 8.84273 15.6789 8.84358 15.6773 8.84452C15.5792 8.89842 15.4814 8.95298 15.3845 9.00877C15.3382 9.0352 15.2923 9.0623 15.2465 9.0892C15.1911 9.12173 15.1355 9.15408 15.0804 9.18717C14.0708 9.79223 13.1323 10.494 12.2762 11.2823L12.2723 11.2785L12.151 11.3998C11.8917 11.6434 11.6402 11.8948 11.3966 12.1542L11.2786 12.2722L11.2827 12.2763C10.4909 13.1361 9.786 14.0782 9.17925 15.0926C9.14072 15.1567 9.1036 15.2216 9.066 15.2862C9.04285 15.326 9.01913 15.3654 8.99635 15.4053C8.75147 15.8327 8.52516 16.2714 8.31675 16.7206L8.30269 16.7147L8.28253 16.7631L3.39844 14.7506C5.66241 9.69726 9.63019 5.71495 14.6752 3.43233ZM2.86285 16.0501L7.2676 17.8651L7.75847 18.0675C7.54097 18.6617 7.35722 19.2653 7.20731 19.8768C7.19288 19.9351 7.17947 19.9936 7.1656 20.052C7.15256 20.1075 7.13897 20.1628 7.1266 20.2185C6.89644 21.2354 6.75975 22.265 6.71719 23.2972H6.71185V23.4677C6.70069 23.824 6.7006 24.1804 6.71185 24.5366V24.7027H6.71766C6.76547 25.8625 6.93094 27.0192 7.21547 28.1577C7.36472 28.761 7.54772 29.3563 7.76278 29.9427L7.74853 29.9486L7.7685 29.997L2.89219 32.0274C0.919877 26.8531 0.909471 21.2316 2.86285 16.0501ZM3.43247 33.3249L8.32125 31.2894C8.48344 31.6383 8.65706 31.9806 8.84119 32.3165C8.84269 32.3192 8.8441 32.3219 8.8456 32.3246C8.89903 32.4217 8.95303 32.5186 9.00825 32.6146C9.03535 32.6621 9.0631 32.709 9.09056 32.756C9.12253 32.8104 9.15422 32.8649 9.18666 32.9189C9.79191 33.9288 10.4937 34.8675 11.2823 35.7239L11.2785 35.7276L11.399 35.8481C11.6431 36.108 11.895 36.36 12.155 36.6041L12.2723 36.7215L12.2765 36.7173C13.1364 37.5092 14.0787 38.2143 15.0933 38.8211C15.1518 38.8562 15.2109 38.89 15.2698 38.9244C15.3153 38.9508 15.3604 38.9779 15.4059 39.004C15.8332 39.2487 16.2716 39.4749 16.7207 39.6833L16.7148 39.6974L16.7632 39.7175L14.7506 44.6016C9.69731 42.3375 5.715 38.3699 3.43247 33.3249ZM32.0273 45.1078C29.4486 46.0906 26.7486 46.5885 23.9912 46.5885C21.2733 46.5885 18.6055 46.1006 16.0503 45.1371L18.0676 40.2414C18.7791 40.5017 19.5037 40.7142 20.2394 40.8778C21.2438 41.103 22.265 41.2364 23.2973 41.278V41.2881H23.6066C23.7354 41.291 23.8645 41.2925 23.9936 41.2925C24.1238 41.2925 24.2538 41.291 24.3835 41.2881H24.7028V41.2775C25.5771 41.242 26.4428 41.1403 27.2963 40.9738C27.3278 40.9677 27.3593 40.962 27.3908 40.9557C27.4473 40.9443 27.5034 40.932 27.5597 40.92C28.368 40.7506 29.1632 40.5228 29.9426 40.2371L29.9485 40.2513L29.9969 40.2314L30.8394 42.2549L32.0273 45.1078ZM33.3248 44.5676L31.2893 39.6788C31.6387 39.5164 31.9813 39.3426 32.3175 39.1582C32.3193 39.1573 32.3211 39.1562 32.3228 39.1553C32.4207 39.1014 32.5184 39.0469 32.6152 38.9912C32.6618 38.9646 32.7078 38.9375 32.7539 38.9105C32.8091 38.8781 32.8644 38.8459 32.9193 38.8129C33.929 38.2078 34.8676 37.5061 35.7237 36.7177L35.7275 36.7215L35.848 36.6009C36.1078 36.3569 36.3598 36.105 36.6038 35.8451L36.7213 35.7276L36.7172 35.7235C37.5092 34.8635 38.2143 33.9211 38.821 32.9066C38.8549 32.8502 38.8874 32.7932 38.9205 32.7365C38.9483 32.6888 38.9767 32.6416 39.004 32.5936C39.2487 32.1665 39.4748 31.7281 39.6832 31.2792L39.6973 31.2851L39.7175 31.2367L44.6016 33.2492C42.3376 38.3025 38.3699 42.2849 33.3248 44.5676Z" fill="black"/>
<path d="M24 12.2488C17.5204 12.2488 12.2488 17.5203 12.2488 24C12.2488 30.4796 17.5203 35.7512 24 35.7512C30.4797 35.7512 35.7512 30.4797 35.7512 24.0001C35.7512 17.5204 30.4797 12.2488 24 12.2488ZM24 34.3457C18.2953 34.3457 13.6543 29.7047 13.6543 24.0001C13.6543 18.2954 18.2953 13.6544 24 13.6544C29.7047 13.6544 34.3457 18.2954 34.3457 24.0001C34.3457 29.7047 29.7046 34.3457 24 34.3457Z" fill="black"/>
</g>
<defs>
<clipPath id="clip0_1864_9670">
<rect width="48" height="48" fill="white"/>
</clipPath>
</defs>
</svg>
