<svg width="24" height="24" viewBox="0 0 24 24" fill="none" xmlns="http://www.w3.org/2000/svg">
<path d="M19.9037 9.75991C19.6242 9.44819 19.6242 8.94283 19.9037 8.63116C20.8717 7.55153 21.2327 5.53267 19.9037 4.76749C18.3281 3.86031 16.2383 5.1138 14.6034 6.51569C14.1561 7.06192 13.6974 7.55786 13.2943 7.96806C13.575 8.27786 13.746 8.68891 13.746 9.13989C13.746 9.59842 13.569 10.0154 13.2799 10.327C13.6978 10.7289 14.1688 11.212 14.6243 11.7432C16.2565 13.0796 18.3354 14.3101 19.9037 13.6236C21.2775 13.0222 20.8717 10.8395 19.9037 9.75991Z" fill="#4DBA69"/>
<path d="M10.2542 9.13983C10.2542 8.68129 10.4312 8.26429 10.7203 7.95276C10.3025 7.55081 9.83143 7.06772 9.37594 6.53653C7.74375 5.20007 5.66485 3.96961 4.09655 4.65609C2.72274 5.25745 3.12853 7.44014 4.09655 8.51976C4.37602 8.83148 4.37602 9.33679 4.09655 9.64851C3.12853 10.7281 2.76755 12.747 4.09655 13.5122C5.67216 14.4194 7.76194 13.1659 9.39685 11.764C9.84413 11.2177 10.3028 10.7218 10.706 10.3116C10.4253 10.0019 10.2542 9.59081 10.2542 9.13983Z" fill="#4DBA69"/>
<path d="M14.6243 11.7431C14.0781 11.2959 13.5821 10.8371 13.1719 10.434C12.8621 10.7147 12.4511 10.8858 12.0001 10.8858C11.5416 10.8858 11.1246 10.7088 10.813 10.4197C10.4111 10.8375 9.92799 11.3086 9.3968 11.7641C8.06035 13.3962 6.82988 15.4751 7.51637 17.0434C8.11773 18.4173 10.3004 18.0115 11.38 17.0434C11.4071 17.0192 11.436 16.9978 11.4657 16.9778C11.77 16.7726 12.1998 16.788 12.485 17.0242C12.4929 17.0307 12.5011 17.0366 12.5088 17.0434C13.5884 18.0115 15.6073 18.3724 16.3725 17.0434C17.2796 15.4679 16.0262 13.3781 14.6243 11.7431Z" fill="#4DBA69"/>
<path d="M12.0001 7.39399C12.4586 7.39399 12.8756 7.57099 13.1872 7.86007C13.5891 7.44223 14.0722 6.97118 14.6034 6.5157C15.9398 4.88351 17.1703 2.8046 16.4838 1.23631C15.8825 -0.137507 13.6998 0.26829 12.6202 1.23631C12.3085 1.51577 11.8031 1.51577 11.4914 1.23631C10.4118 0.26829 8.39292 -0.0926944 7.62774 1.23631C6.72056 2.81191 7.974 4.90165 9.37594 6.5366C9.92217 6.98388 10.4181 7.4426 10.8283 7.84573C11.1381 7.56504 11.5491 7.39399 12.0001 7.39399Z" fill="#4DBA69"/>
<path d="M11.9364 1.43703C11.7736 1.41505 11.6168 1.34867 11.4914 1.23626C10.4118 0.268249 8.39292 -0.0927357 7.62774 1.23626C6.72056 2.81187 7.974 4.90161 9.37594 6.53656C9.92217 6.98384 10.4181 7.44256 10.8283 7.84569C11.1235 7.57826 11.5106 7.41073 11.9365 7.39545L11.9364 1.43703Z" fill="#378B4F"/>
<path d="M19.7048 9.07619C19.7267 8.91335 19.7931 8.75651 19.9055 8.63116C20.8735 7.55154 21.2345 5.53268 19.9055 4.76749C18.3299 3.86032 16.2402 5.11376 14.6052 6.51569C14.1579 7.06193 13.6992 7.55787 13.2961 7.96807C13.5635 8.26324 13.7311 8.65034 13.7463 9.07624L19.7048 9.07619Z" fill="#378B4F"/>
<path d="M12.0887 16.8358C12.2516 16.8578 12.4084 16.9241 12.5338 17.0365C13.6134 18.0046 15.6323 18.3655 16.3974 17.0365C17.3046 15.4609 16.0512 13.3712 14.6492 11.7362C14.103 11.289 13.6071 10.8302 13.1969 10.4271C12.9017 10.6945 12.5146 10.8621 12.0887 10.8774L12.0887 16.8358Z" fill="#378B4F"/>
<path d="M4.32038 9.19664C4.29839 9.35949 4.23202 9.51633 4.11961 9.64167C3.1516 10.7213 2.79061 12.7402 4.11961 13.5053C5.69522 14.4125 7.78495 13.1591 9.41991 11.7571C9.86719 11.2109 10.3259 10.715 10.729 10.3048C10.4616 10.0096 10.2941 9.6225 10.2788 9.19659L4.32038 9.19664Z" fill="#378B4F"/>
<path d="M13.2942 7.96807C13.2601 7.93048 13.2243 7.89462 13.1871 7.86012C12.8756 7.57104 12.4586 7.39404 12 7.39404C11.5491 7.39404 11.1381 7.56509 10.8282 7.84578C10.7906 7.87986 10.7547 7.91567 10.7202 7.95289C10.4311 8.26442 10.2541 8.68142 10.2541 9.13995C10.2541 9.59093 10.4252 10.0019 10.7059 10.3118C10.74 10.3494 10.7758 10.3853 10.8129 10.4197C11.1245 10.7088 11.5415 10.8858 12 10.8858C12.451 10.8858 12.862 10.7148 13.1718 10.4341C13.2094 10.4 13.2453 10.3642 13.2798 10.327C13.5689 10.0154 13.7459 9.59843 13.7459 9.1399C13.746 8.68887 13.5749 8.27787 13.2942 7.96807Z" fill="#9CDD03"/>
<path d="M11.9858 10.3117C11.7051 10.0019 11.534 9.59081 11.534 9.13983C11.534 8.6813 11.711 8.2643 12.0001 7.95276C12.0346 7.91559 12.0705 7.87973 12.1081 7.84565C12.2626 7.70564 12.4424 7.59295 12.6396 7.51514C12.4416 7.43705 12.2259 7.39392 12.0001 7.39392C11.5491 7.39392 11.1381 7.56497 10.8283 7.84565C10.7907 7.87973 10.7548 7.91555 10.7203 7.95276C10.4312 8.2643 10.2542 8.6813 10.2542 9.13983C10.2542 9.59081 10.4252 10.0018 10.7059 10.3117C10.74 10.3492 10.7758 10.3852 10.813 10.4196C11.1245 10.7087 11.5415 10.8857 12 10.8857C12.2261 10.8857 12.4421 10.8427 12.6404 10.7645C12.4363 10.684 12.2509 10.5663 12.0928 10.4196C12.0557 10.3852 12.0198 10.3492 11.9858 10.3117Z" fill="#86BC06"/>
<path d="M11.4657 16.9778L11.226 23.6484H12.7231L12.485 17.0241C12.1998 16.7879 11.77 16.7725 11.4657 16.9778Z" fill="#2B743F"/>
<path d="M20.1654 8.86584C20.8687 8.08148 21.2393 6.918 21.0877 5.97075C20.9808 5.30255 20.632 4.78106 20.0791 4.46273C19.6704 4.22742 19.2118 4.10817 18.7159 4.10817C17.9465 4.10817 17.0836 4.39284 16.1376 4.9568C17.0347 3.42802 17.2605 2.1338 16.8059 1.09528C16.4967 0.388969 15.8277 0 14.922 0C14.0414 0 13.0457 0.3825 12.3855 0.974484C12.2993 1.05169 12.1822 1.0943 12.0558 1.0943C11.9294 1.0943 11.8123 1.05173 11.7261 0.974484C11.0681 0.384516 10.1279 0.0180469 9.2722 0.0180469C8.40244 0.0180469 7.71019 0.388359 7.32305 1.06083C6.85411 1.87528 6.8498 2.86294 7.3102 3.99647C7.44192 4.32075 7.6124 4.65773 7.82006 5.00569C6.80222 4.40948 5.88436 4.10822 5.07806 4.10822C4.67564 4.10822 4.29797 4.1842 3.95559 4.33406C3.41222 4.57191 3.05362 5.0265 2.91862 5.64872C2.70769 6.621 3.093 7.92717 3.83479 8.75452C3.99501 8.93325 3.99501 9.23517 3.83479 9.41386C3.13153 10.1982 2.76089 11.3617 2.91253 12.309C3.0195 12.9772 3.3683 13.4986 3.92119 13.8169C4.32975 14.0522 4.78842 14.1714 5.28436 14.1715C5.2845 14.1715 5.2845 14.1715 5.28469 14.1715C6.05395 14.1715 6.91673 13.8868 7.86276 13.3229C6.96558 14.8516 6.73987 16.1459 7.19442 17.1844C7.50361 17.8907 8.17261 18.2797 9.07823 18.2797C9.74789 18.2797 10.4837 18.0581 11.0884 17.6917L10.8615 24H13.0875L12.8622 17.7308C13.4342 18.0657 14.1034 18.2616 14.728 18.2617C14.728 18.2617 14.728 18.2617 14.728 18.2617C15.5977 18.2617 16.29 17.8913 16.6771 17.2189C17.1461 16.4044 17.1504 15.4168 16.69 14.2832C16.5582 13.9589 16.3877 13.6219 16.1801 13.2739C17.1979 13.8701 18.1158 14.1714 18.9221 14.1715C18.9222 14.1715 18.9223 14.1715 18.9224 14.1715C19.3246 14.1715 19.7023 14.0955 20.0446 13.9456C20.588 13.7078 20.9466 13.2532 21.0816 12.631C21.2925 11.6587 20.9072 10.3526 20.1654 9.52519C20.0052 9.3465 20.0052 9.04453 20.1654 8.86584ZM12.0001 10.5342C11.9119 10.5342 11.8248 10.5259 11.7396 10.5097C11.5245 10.469 11.322 10.3778 11.1475 10.2426C11.1147 10.2172 11.0829 10.1904 11.0522 10.1619L11.0517 10.1615C11.0208 10.1328 10.9921 10.1039 10.9665 10.0756C10.7339 9.81886 10.6058 9.48656 10.6058 9.13983C10.6058 9.09577 10.6079 9.05194 10.6119 9.00848C10.6405 8.70431 10.768 8.41828 10.9782 8.19178C11.0068 8.16084 11.0358 8.13206 11.0643 8.10619C11.3211 7.87359 11.6534 7.74553 12.0001 7.74553C12.0883 7.74553 12.1754 7.75378 12.2606 7.76995C12.5161 7.81838 12.754 7.93772 12.948 8.11777L12.948 8.11786C12.9794 8.14692 13.0081 8.17598 13.0337 8.20411C13.2663 8.46084 13.3943 8.79314 13.3943 9.13987C13.3943 9.20597 13.3897 9.27155 13.3806 9.33614C13.3769 9.36225 13.3722 9.38817 13.367 9.41395C13.3306 9.59625 13.258 9.76922 13.1529 9.92339C13.1137 9.98095 13.0702 10.0359 13.0221 10.0877L13.0211 10.0888C12.9924 10.1197 12.9637 10.1482 12.9358 10.1735C12.6791 10.4061 12.3468 10.5342 12.0001 10.5342ZM7.93237 1.41164C8.26097 0.840937 8.84236 0.721172 9.2722 0.721172C9.95142 0.721172 10.7304 1.02609 11.2567 1.49798C11.472 1.69106 11.7558 1.79742 12.0558 1.79742C12.3557 1.79742 12.6395 1.69106 12.8549 1.49798C13.3851 1.02253 14.2159 0.703125 14.922 0.703125C15.353 0.703125 15.9179 0.820078 16.1617 1.37723C16.7902 2.81288 15.529 4.82513 14.3507 6.26916C13.9568 6.6082 13.5557 6.98395 13.1552 7.38919C13.1463 7.38328 13.1371 7.37775 13.1281 7.37198C13.1203 7.36697 13.1125 7.36191 13.1046 7.35698C13.083 7.34363 13.0613 7.33064 13.0394 7.31812C13.0355 7.31592 13.0318 7.31358 13.0279 7.31142C13.002 7.2968 12.9758 7.28287 12.9493 7.26942C12.9425 7.26595 12.9356 7.26272 12.9287 7.2593C12.9088 7.24945 12.8887 7.23984 12.8685 7.23061C12.8598 7.22667 12.8512 7.22278 12.8424 7.21894C12.8225 7.21017 12.8024 7.20178 12.7822 7.19367C12.7747 7.19062 12.7671 7.18744 12.7594 7.18448C12.7318 7.17375 12.704 7.16348 12.6759 7.15392C12.6735 7.15313 12.671 7.15242 12.6686 7.15158C12.643 7.143 12.6173 7.13494 12.5914 7.12734C12.5826 7.12477 12.5738 7.12238 12.565 7.11994C12.5447 7.11427 12.5243 7.10888 12.5038 7.10381C12.4945 7.10152 12.4852 7.09922 12.4758 7.09702C12.4529 7.09172 12.4299 7.0868 12.4068 7.08225C12.4007 7.08103 12.3945 7.07962 12.3884 7.0785C12.3762 7.0762 12.3639 7.07428 12.3517 7.07222V2.77223H11.6486V7.07227C11.6382 7.07405 11.6277 7.07564 11.6174 7.07756C11.612 7.07855 11.6066 7.07977 11.6012 7.0808C11.5778 7.0853 11.5545 7.09017 11.5313 7.09547C11.522 7.09762 11.5127 7.09987 11.5035 7.10217C11.4836 7.107 11.4639 7.11211 11.4442 7.1175C11.435 7.12003 11.4258 7.12252 11.4166 7.12519C11.3938 7.1318 11.371 7.13888 11.3483 7.14623C11.3432 7.14792 11.3381 7.14942 11.333 7.15111C11.3055 7.16034 11.2781 7.17023 11.2509 7.18059C11.2438 7.18331 11.2368 7.18627 11.2297 7.18908C11.2095 7.19705 11.1893 7.2053 11.1694 7.21392C11.1605 7.21777 11.1517 7.2217 11.1428 7.22564C11.1239 7.23413 11.105 7.24298 11.0863 7.25203C11.0784 7.25588 11.0704 7.25962 11.0625 7.26356C11.0364 7.27659 11.0105 7.29005 10.985 7.30416C10.9595 7.31827 10.9343 7.33308 10.9094 7.34827C10.9017 7.35295 10.8942 7.35783 10.8865 7.36261C10.8762 7.36908 10.8657 7.37541 10.8555 7.38206C10.443 6.98667 10.0294 6.61833 9.62292 6.28439C8.39269 4.84434 7.1108 2.83861 7.93237 1.41164ZM5.28431 13.4684C4.91306 13.4683 4.57242 13.3806 4.2719 13.2075C3.90384 12.9957 3.68006 12.6559 3.60675 12.1978C3.48867 11.4602 3.79772 10.5084 4.35825 9.88327C4.76001 9.43519 4.76001 8.73319 4.35825 8.28511C3.76514 7.62361 3.44161 6.55425 3.60572 5.79778C3.69211 5.39962 3.90464 5.12386 4.2375 4.97817C4.49048 4.86745 4.77328 4.8113 5.07806 4.8113C6.14306 4.8113 7.5435 5.49506 9.12947 6.78914C9.46851 7.18308 9.84431 7.58419 10.2495 7.98469C10.2438 7.99331 10.2385 8.00212 10.2329 8.0108C10.2275 8.01919 10.2221 8.02758 10.2169 8.03602C10.2042 8.05641 10.1919 8.07703 10.18 8.09784C10.1772 8.10277 10.1742 8.10759 10.1715 8.11252C10.1571 8.13802 10.1434 8.1638 10.1302 8.18981C10.1262 8.19759 10.1225 8.20542 10.1186 8.21325C10.1093 8.23219 10.1002 8.25122 10.0914 8.27039C10.0872 8.27977 10.083 8.28914 10.0789 8.29856C10.0705 8.31759 10.0625 8.33672 10.0548 8.35594C10.0514 8.36438 10.0478 8.37277 10.0446 8.3812C10.034 8.40844 10.0239 8.43581 10.0145 8.46347C10.0132 8.46712 10.0121 8.47087 10.0109 8.47453C10.0027 8.49886 9.99511 8.52337 9.98784 8.54798C9.98512 8.55722 9.98259 8.5665 9.98001 8.57574C9.97448 8.59556 9.96923 8.61548 9.96431 8.63545C9.96192 8.64516 9.95953 8.65481 9.95728 8.66452C9.9539 8.679 9.95076 8.69353 9.94772 8.70806H5.71265V9.41119H9.92067C9.92072 9.41161 9.92076 9.41203 9.92081 9.41245C9.92184 9.42033 9.92269 9.4282 9.92381 9.43603C9.92794 9.46491 9.93258 9.49369 9.93787 9.52233C9.9389 9.52795 9.94017 9.53348 9.94125 9.53906C9.94575 9.56227 9.95058 9.58533 9.95583 9.60834C9.95798 9.61777 9.96028 9.62709 9.96258 9.63647C9.96736 9.6562 9.97247 9.67584 9.97786 9.69544C9.98039 9.70472 9.98292 9.71405 9.98559 9.72328C9.99216 9.74597 9.99914 9.76847 10.0065 9.79092C10.0082 9.79622 10.0097 9.80161 10.0115 9.80691C10.0207 9.83442 10.0306 9.86166 10.041 9.88875C10.0438 9.89606 10.0468 9.90328 10.0497 9.91059C10.0576 9.93061 10.0657 9.95053 10.0743 9.97031C10.0782 9.97931 10.0822 9.98827 10.0861 9.99717C10.0946 10.0161 10.1034 10.0348 10.1124 10.0534C10.1163 10.0614 10.12 10.0694 10.124 10.0773C10.1501 10.1295 10.1784 10.1806 10.2089 10.2306C10.2134 10.2381 10.2182 10.2454 10.2228 10.2529C10.2294 10.2634 10.2358 10.274 10.2426 10.2843C9.84731 10.6966 9.47897 11.1102 9.14484 11.5169C7.65037 12.7935 6.31603 13.4682 5.28478 13.4682C5.2845 13.4684 5.2844 13.4684 5.28431 13.4684ZM11.5904 23.2969L11.8094 17.2039C11.8125 17.2031 11.8155 17.2023 11.8185 17.2015C11.8268 17.1995 11.8352 17.1976 11.8437 17.196C11.8479 17.1952 11.8521 17.1945 11.8564 17.1937C11.8673 17.192 11.8784 17.1904 11.8895 17.1893C11.8912 17.1892 11.8928 17.189 11.8944 17.1888C11.9358 17.1851 11.9778 17.1861 12.0188 17.1916C12.0194 17.1917 12.0201 17.1918 12.0207 17.1919C12.0326 17.1936 12.0443 17.1958 12.056 17.1982C12.0588 17.1988 12.0616 17.1993 12.0645 17.2C12.0738 17.2021 12.083 17.2047 12.0922 17.2073C12.0972 17.2087 12.1023 17.2102 12.1073 17.2118C12.1147 17.2142 12.1219 17.2169 12.1291 17.2195C12.1329 17.221 12.1367 17.2225 12.1405 17.224L12.3587 23.2969H11.5904ZM16.0678 16.8681C15.7392 17.4388 15.1578 17.5585 14.728 17.5585C14.0851 17.5585 13.3533 17.2851 12.8307 16.856L12.8306 16.8539L12.7428 16.7812C12.7326 16.772 12.7219 16.7633 12.7092 16.7534C12.4987 16.5791 12.2271 16.4831 11.9444 16.4831C11.9026 16.4831 11.8613 16.4859 11.8203 16.4899C11.6212 16.5097 11.4325 16.5761 11.269 16.6864L11.2689 16.6865C11.2689 16.6865 11.2688 16.6865 11.2688 16.6865L11.1208 16.7864L11.1202 16.803C10.5891 17.2665 9.77348 17.5765 9.07809 17.5765C8.64717 17.5765 8.08223 17.4596 7.83839 16.9024C7.20998 15.4668 8.47111 13.4546 9.64936 12.0105C10.0434 11.6714 10.4445 11.2956 10.8449 10.8904C10.8534 10.896 10.862 10.9012 10.8705 10.9067C10.8791 10.9122 10.8877 10.9177 10.8964 10.9231C10.9167 10.9358 10.9372 10.9479 10.9578 10.9598C10.9628 10.9626 10.9677 10.9657 10.9727 10.9685C10.9983 10.9829 11.0241 10.9966 11.0502 11.0099C11.0577 11.0138 11.0654 11.0174 11.073 11.0211C11.0921 11.0306 11.1114 11.0398 11.1308 11.0487C11.14 11.0528 11.1492 11.057 11.1585 11.061C11.1778 11.0695 11.1972 11.0776 11.2168 11.0855C11.2249 11.0887 11.233 11.0921 11.2411 11.0953C11.2686 11.106 11.2961 11.1161 11.324 11.1256C11.3271 11.1266 11.3302 11.1276 11.3333 11.1286C11.3582 11.1369 11.3833 11.1448 11.4085 11.1522C11.4175 11.1548 11.4266 11.1573 11.4356 11.1599C11.4557 11.1654 11.4758 11.1708 11.4961 11.1757C11.5056 11.1781 11.515 11.1804 11.5246 11.1826C11.5472 11.1879 11.57 11.1927 11.5928 11.1972C11.5992 11.1985 11.6056 11.1999 11.612 11.2011C11.6242 11.2034 11.6363 11.2053 11.6485 11.2073V15.3472H12.3517V11.2073C12.3621 11.2056 12.3725 11.204 12.3829 11.202C12.3883 11.2011 12.3936 11.1998 12.399 11.1988C12.4224 11.1943 12.4457 11.1894 12.4689 11.1841C12.4782 11.182 12.4875 11.1797 12.4967 11.1774C12.5166 11.1726 12.5364 11.1675 12.5562 11.1621C12.5653 11.1595 12.5745 11.1571 12.5835 11.1545C12.6064 11.1479 12.6292 11.1408 12.6518 11.1334C12.657 11.1317 12.6622 11.1302 12.6673 11.1285C12.6948 11.1193 12.7221 11.1094 12.7492 11.0991C12.7565 11.0962 12.7637 11.0932 12.771 11.0903C12.7911 11.0824 12.811 11.0743 12.8307 11.0657C12.8397 11.0618 12.8487 11.0579 12.8576 11.0539C12.8765 11.0454 12.8951 11.0367 12.9137 11.0277C12.9217 11.0238 12.9299 11.02 12.9379 11.016C12.9638 11.003 12.9896 10.9896 13.015 10.9755C13.0155 10.9753 13.0159 10.975 13.0163 10.9748C13.0414 10.9609 13.0662 10.9463 13.0907 10.9313C13.0986 10.9266 13.1062 10.9216 13.114 10.9168C13.1243 10.9103 13.1347 10.9041 13.1448 10.8975C13.5574 11.293 13.971 11.6613 14.3774 11.9952C15.6075 13.4354 16.8894 15.441 16.0678 16.8681ZM20.3945 12.4819C20.3081 12.88 20.0955 13.1558 19.7627 13.3014C19.5097 13.4122 19.227 13.4684 18.9224 13.4684C18.9223 13.4684 18.9222 13.4684 18.9222 13.4684C17.8571 13.4683 16.4567 12.7845 14.8707 11.4905C14.5316 11.0965 14.1558 10.6954 13.7507 10.295C13.7565 10.2862 13.7619 10.2772 13.7677 10.2683C13.7728 10.2602 13.778 10.2522 13.783 10.2441C13.7962 10.223 13.8089 10.2016 13.8212 10.1801C13.8236 10.1759 13.8262 10.1718 13.8285 10.1675C13.8431 10.1417 13.857 10.1157 13.8704 10.0893C13.874 10.0822 13.8774 10.075 13.8809 10.0679C13.8906 10.0483 13.9 10.0285 13.9091 10.0087C13.9132 9.99975 13.9171 9.9908 13.921 9.98184C13.9297 9.96225 13.9379 9.94247 13.9459 9.92264C13.9491 9.91472 13.9523 9.90689 13.9554 9.89892C13.9661 9.87145 13.9763 9.84375 13.9858 9.81586C13.9868 9.81295 13.9876 9.81005 13.9886 9.80714C13.9971 9.78206 14.0049 9.75675 14.0124 9.73134C14.015 9.72239 14.0175 9.71339 14.02 9.70439C14.0256 9.68433 14.0309 9.66417 14.0359 9.64392C14.0383 9.63441 14.0406 9.62489 14.0429 9.61528C14.0481 9.59269 14.0529 9.56995 14.0574 9.54712C14.0587 9.54075 14.0602 9.53438 14.0613 9.528C14.0668 9.49898 14.0716 9.46978 14.0758 9.44049C14.0769 9.43303 14.0777 9.42553 14.0787 9.41803C14.079 9.41583 14.0793 9.41362 14.0796 9.41138H18.2876V8.70825H14.0525C14.0498 8.69583 14.0472 8.68341 14.0444 8.67103C14.0422 8.6617 14.04 8.65247 14.0377 8.64319C14.0329 8.62336 14.0278 8.60358 14.0224 8.58389C14.0198 8.5747 14.0174 8.56547 14.0147 8.55633C14.0081 8.5335 14.001 8.51081 13.9937 8.48822C13.992 8.48306 13.9905 8.47781 13.9888 8.47266C13.9795 8.44509 13.9697 8.41781 13.9593 8.39067C13.9566 8.38341 13.9536 8.37623 13.9507 8.36902C13.9428 8.34895 13.9346 8.32903 13.926 8.3092C13.9222 8.3002 13.9182 8.29125 13.9142 8.2823C13.9057 8.2635 13.897 8.2448 13.888 8.22623C13.8841 8.21812 13.8803 8.21002 13.8763 8.202C13.8633 8.17608 13.8499 8.1503 13.8359 8.12489C13.8356 8.12447 13.8353 8.12405 13.8351 8.12358C13.8212 8.0985 13.8066 8.07375 13.7917 8.04919C13.7869 8.04136 13.782 8.03367 13.7771 8.02589C13.7707 8.01562 13.7644 8.00527 13.7578 7.99514C14.1532 7.58269 14.5215 7.16911 14.8555 6.76256C16.35 5.48597 17.6845 4.81125 18.7159 4.81125C19.0871 4.81125 19.4277 4.899 19.7283 5.07206C20.0963 5.28398 20.3201 5.62369 20.3934 6.08184C20.5115 6.81938 20.2025 7.77117 19.6419 8.39639C19.2402 8.84447 19.2402 9.54647 19.6419 9.99455C20.2351 10.6561 20.5586 11.7255 20.3945 12.4819Z" fill="black"/>
<path d="M2.75264 2.03394H1.98431V2.73706H2.75264V2.03394Z" fill="#86BC06"/>
<path d="M22.0159 16.4832H21.2476V17.1863H22.0159V16.4832Z" fill="#86BC06"/>
<path d="M17.4184 19.89H16.6501V20.5931H17.4184V19.89Z" fill="#86BC06"/>
<path d="M1.77225 17.3939H1.00392V18.097H1.77225V17.3939Z" fill="#86BC06"/>
<path d="M22.9961 4.51831H22.2278V5.22144H22.9961V4.51831Z" fill="#86BC06"/>
<path d="M6.88936 21.7097H6.12103V22.4128H6.88936V21.7097Z" fill="#86BC06"/>
</svg>
